#!OML:ASF X:\für Bonn\!DataBase\2005_08_12_Daniel\c3d\Daniel.ASF
:FULLY-SPECIFIED
:DEGREES
96
root 2.70253 17.6267 17.5581 -5.51907 13.6221 0.756029
lowerback 6.27072 2.17413 2.97885
upperback 0.848807 2.96445 -6.26291
thorax -2.14901 1.46163 -8.50133
lowerneck 1.51883 -5.20824 0.128859
upperneck 11.0547 -7.31972 3.7647
head 3.45926 -3.48514 1.01625
rclavicle 3.46134e-014 2.22639e-014
rhumerus 56.4302 -3.65637 -61.71
rradius 19.8206
rwrist 19.3863
rhand -7.79363 9.99062
rfingers 7.12502
rthumb 18.1074 -19.1865
lclavicle 3.46134e-014 2.22639e-014
lhumerus -35.4803 43.0043 58.6889
lradius 16.525
lwrist -43.7397
lhand -10.6817 -5.99221
lfingers 7.12502
lthumb 15.3271 23.4198
rfemur 6.435 15.9887 20.7789
rtibia 18.4169
rfoot -26.5438 -24.9277
rtoes -10.8656
lfemur -0.334969 -18.1026 -20.2289
ltibia 27.4972
lfoot -21.2289 6.00233
ltoes -15.7165
97
root 2.69872 17.6273 17.5573 -5.50268 13.6731 0.757981
lowerback 6.28803 2.21212 2.97492
upperback 0.833874 3.01448 -6.27706
thorax -2.16528 1.48603 -8.51937
lowerneck 1.54516 -5.24907 0.146256
upperneck 11.0886 -7.37433 3.75458
head 3.46629 -3.51139 1.00886
rclavicle -5.74488e-014 4.13472e-014
rhumerus 56.9164 -3.98973 -62.3391
rradius 18.9633
rwrist 20.3113
rhand -6.7156 9.5721
rfingers 7.12502
rthumb 19.1443 -19.5057
lclavicle -5.74488e-014 4.13472e-014
lhumerus -35.3735 42.7931 58.9001
lradius 16.5657
lwrist -43.3834
lhand -10.7156 -5.94653
lfingers 7.12502
lthumb 15.2944 23.468
rfemur 6.42023 15.9866 20.7884
rtibia 18.4236
rfoot -26.5619 -24.9585
rtoes -10.7751
lfemur -0.379191 -18.0838 -20.201
ltibia 27.5122
lfoot -21.2182 5.94142
ltoes -15.7652
98
root 2.69464 17.6272 17.5563 -5.51052 13.7226 0.756332
lowerback 6.33733 2.2441 2.97023
upperback 0.818956 3.05643 -6.28362
thorax -2.20125 1.50564 -8.53012
lowerneck 1.57195 -5.27468 0.122979
upperneck 11.1357 -7.41144 3.77649
head 3.48087 -3.52921 1.01922
rclavicle -9.36773e-014 3.81667e-014
rhumerus 57.3814 -4.33926 -63.0664
rradius 18.1811
rwrist 21.3003
rhand -5.52167 9.08372
rfingers 7.12502
rthumb 20.2921 -19.8762
lclavicle -9.36773e-014 3.81667e-014
lhumerus -35.3458 42.7068 59.0041
lradius 16.5901
lwrist -43.2028
lhand -10.7083 -5.93744
lfingers 7.12502
lthumb 15.3015 23.4765
rfemur 6.42244 15.973 20.8045
rtibia 18.4343
rfoot -26.5985 -24.9745
rtoes -10.7183
lfemur -0.400165 -18.0627 -20.1749
ltibia 27.5239
lfoot -21.2031 5.88014
ltoes -15.8171
99
root 2.69119 17.6277 17.556 -5.50395 13.7662 0.746176
lowerback 6.36305 2.27662 2.98611
upperback 0.800995 3.10027 -6.30319
thorax -2.22501 1.52643 -8.56598
lowerneck 1.58947 -5.31279 0.134902
upperneck 11.2015 -7.4652 3.78095
head 3.5017 -3.554 1.01699
rclavicle 1.75179e-014 7.95139e-014
rhumerus 57.8751 -4.81617 -64.1145
rradius 17.3805
rwrist 22.6025
rhand -4.33193 8.68521
rfingers 7.12502
rthumb 21.4352 -20.149
lclavicle 1.75179e-014 7.95139e-014
lhumerus -35.281 42.5324 59.1522
lradius 16.6425
lwrist -42.8837
lhand -10.7067 -5.94134
lfingers 7.12502
lthumb 15.303 23.4725
rfemur 6.41457 15.938 20.817
rtibia 18.434
rfoot -26.6114 -24.9677
rtoes -10.6622
lfemur -0.437439 -18.0654 -20.1405
ltibia 27.5433
lfoot -21.2002 5.83195
ltoes -15.8174
100
root 2.68724 17.6275 17.5547 -5.50725 13.8167 0.758452
lowerback 6.40898 2.30263 2.96226
upperback 0.788501 3.13288 -6.31251
thorax -2.25901 1.5416 -8.56773
lowerneck 1.62857 -5.33761 0.110177
upperneck 11.2352 -7.49994 3.79692
head 3.50908 -3.57135 1.0262
rclavicle 4.16702e-014 -5.725e-014
rhumerus 58.3579 -5.28166 -65.1619
rradius 16.661
rwrist 23.8909
rhand -3.13498 8.25279
rfingers 7.12502
rthumb 22.5844 -20.4461
lclavicle 4.16702e-014 -5.725e-014
lhumerus -35.252 42.4067 59.2814
lradius 16.6866
lwrist -42.5957
lhand -10.6781 -5.91803
lfingers 7.12502
lthumb 15.3306 23.4937
rfemur 6.42016 15.8894 20.8112
rtibia 18.432
rfoot -26.6087 -24.9732
rtoes -10.6613
lfemur -0.461919 -18.0626 -20.131
ltibia 27.5612
lfoot -21.1926 5.77447
ltoes -15.8197
101
root 2.68391 17.6272 17.553 -5.50241 13.8735 0.745945
lowerback 6.44316 2.32534 2.98469
upperback 0.778198 3.16425 -6.33509
thorax -2.28103 1.55632 -8.61018
lowerneck 1.62994 -5.36584 0.132374
upperneck 11.3006 -7.54133 3.80596
head 3.53228 -3.58921 1.02362
rclavicle -2.55563e-014 6.67916e-014
rhumerus 58.9054 -5.91443 -66.5887
rradius 15.9135
rwrist 25.5864
rhand -1.92822 7.87482
rfingers 7.12502
rthumb 23.7422 -20.6785
lclavicle -2.55563e-014 6.67916e-014
lhumerus -35.1744 42.2559 59.4144
lradius 16.7141
lwrist -42.3147
lhand -10.6791 -5.93376
lfingers 7.12502
lthumb 15.3296 23.478
rfemur 6.41515 15.8762 20.8347
rtibia 18.4321
rfoot -26.6507 -24.9931
rtoes -10.5917
lfemur -0.510984 -18.0189 -20.0825
ltibia 27.5796
lfoot -21.1732 5.68293
ltoes -15.8727
